<?xml version="1.0" encoding="UTF-8"?>
<!DOCTYPE svg PUBLIC "-//W3C//DTD SVG 1.1//EN" "http://www.w3.org/Graphics/SVG/1.1/DTD/svg11.dtd">
<!-- Creator: CorelDRAW 2020 (64 Bit) -->
<svg xmlns="http://www.w3.org/2000/svg" xml:space="preserve" width="93.6458mm" height="93.28mm" version="1.1" style="shape-rendering:geometricPrecision; text-rendering:geometricPrecision; image-rendering:optimizeQuality; fill-rule:evenodd; clip-rule:evenodd"
viewBox="0 0 9608.87 9571.34"
 xmlns:xlink="http://www.w3.org/1999/xlink"
 xmlns:xodm="http://www.corel.com/coreldraw/odm/2003">
 <defs>
  <style type="text/css">
   <![CDATA[
    .fil0 {fill:#373435}
   ]]>
  </style>
 </defs>
 <g id="Camada_x0020_1">
  <metadata id="CorelCorpID_0Corel-Layer"/>
  <g id="_2321553057008">
   <path class="fil0" d="M450.41 9008.31c0,-275.19 16.55,-167.15 56.31,-337.81 112.22,26.14 218.56,75.07 356.58,75.07 0,213.98 72.21,265.81 75.07,394.11 -79.66,18.56 -487.96,145.8 -487.96,-131.37zm9158.46 -5767.23l0 207.83c-28.07,320.54 -191.18,580.83 -472.71,995.42 -543.43,800.27 -367.76,1072.93 -873.76,1584.75 -357.97,362.11 -870.41,411.82 -1300.83,669.74 -207.82,124.53 -388.19,268.71 -595.77,398.91 -829.39,520.23 -1317,64.09 -2197.75,-118.1 -207.35,-42.89 -155.55,-24.82 -341.89,36.98 -190.21,63.07 -466.12,156.27 -628.08,253.97 -46.89,28.28 -92.41,58.61 -133.37,91.86 -208.71,169.34 -372.46,334.44 -534.06,554.44 -135.21,184.07 -217.43,354.12 -295.15,586.91 -143.28,429.12 -295.5,1177.91 -997.21,953.09 -157.62,-50.48 -89.81,114.47 -600.19,114.47 -487.68,0 -753.06,-535.33 -450.42,-1107.28 -57.24,-85.46 -112.6,-188.09 -112.6,-319.04 0,-442.83 352.06,-627.39 709.19,-717.12 856.26,-215.15 1507.25,-658.66 1794.01,-1527.81 43.92,-133.07 110.97,-263 96.16,-352.67 -115.3,-698.36 -529.97,-1259.29 -312.48,-1909.29 146.99,-439.34 486.67,-729.76 696.92,-1198.58 48.14,-107.37 96.61,-231.03 138.6,-349.35 112.52,-317.05 285.91,-646.96 555.62,-851.94 198.53,-150.89 379.93,-222.57 633.07,-324.05 824.44,-330.5 602.65,-311.94 1202.74,-674 818.81,-494.03 1330.77,-28.98 2031.98,115.02 720.63,148 1246.99,246.59 1493.23,965.28 73.21,213.69 110.02,415.46 158.3,648.7 49.17,237.58 116.35,419.94 188.71,637.05 85.1,255.35 133.63,458.08 147.75,634.82zm-8107.48 5861.07c-136.33,0 -188.52,-23.2 -246.44,-297.82 -29.87,-141.62 9.44,-286.92 -85.31,-383.87 -70.48,-72.12 -270.86,-54.44 -392.49,-76.69 -208.61,-38.17 -307.97,-92.18 -307.97,-236.29 0,-325.99 776.63,-299.52 1425.42,-714.05 271.15,-173.25 631.76,-532.06 800.19,-813.8 66.04,-110.48 159.44,-322.56 195.37,-348.88 39.47,169.42 324.88,463.18 487.96,506.72l0 37.53c-246.7,20.53 -570.85,305.21 -737.49,444.86 -357.18,299.33 -630.23,737.23 -780.3,1190.27 -55.36,167.11 -125.66,434.2 -215.47,572.75 -28.55,44.05 -83.7,119.26 -143.48,119.26zm4185.11 -2158.24c-565.4,0 -781.99,-211.41 -1409.11,-336.26l-448.85 -95.4 74.73 -37.87c30.83,-15.06 42.21,-20.59 72.39,-40.21 49.28,-32.03 82.89,-60.67 118.95,-106.25 67.73,-85.56 128.05,-192.28 128.05,-341.14 411.3,217.63 545.19,219.72 1056.4,294.85 391.46,57.51 834.77,99.27 1270.75,99.27 95.15,0 102.25,-18.78 206.44,-18.78l-487.95 337.82c-132.04,88.23 -369.58,243.97 -581.79,243.97zm-2008.1 -656.86c-399.69,0 -473.95,-638.08 37.53,-638.08 351.85,0 387.25,638.08 -37.53,638.08zm2402.21 -150.14l0 -37.53c209.4,-17.42 759.29,-336.91 960.07,-485.02 408,-301.01 759.01,-454.43 1201.92,-749.88l296.54 -191.41c-214.56,405.5 -236.18,925.64 -730.81,1220.99 -278.81,166.48 -372.56,161.4 -759.49,216.41 -288.06,40.94 -650.48,26.44 -968.23,26.44zm-769.45 -281.51c-479.19,0 -813.26,-75.16 -1149.6,-408.11 -568.26,-562.54 -422.71,-1549.38 -95.72,-2188.46 161.22,-315.1 374.27,-595.53 621.31,-842.55 765.8,-765.78 2102.92,-1317.65 3020.75,-552.86 111.95,93.29 220.38,271.67 287.31,407.08 200.75,406.14 150.32,986.44 20.84,1410.27 -148.03,484.51 -456.14,929.9 -804.71,1278.47 -229.05,229.06 -492.58,437.6 -799.14,589.64 -285.62,141.68 -685.23,306.5 -1101.04,306.5zm-2045.65 -2815.1c0,700.83 76.66,1800.19 375.35,2364.69 -223,18.55 -471.31,194.17 -487.96,394.11l-37.53 0c-2.87,-128.97 -171.27,-805.69 -206.44,-900.83 -418.34,-1131.73 -210.7,-1141.64 281.75,-1895.26 31.58,-48.33 50.3,-99.89 93.6,-131.61 -1.9,84.87 -18.78,74.58 -18.78,168.9zm5010.88 -1088.5c175.03,-3.9 343.14,-115.52 428.63,-247l64.61 -123.07c1.65,-3.19 5.34,-9.49 6.71,-12.06 1.36,-2.57 4.15,-8.23 6.76,-11.99l260.54 1015.64c103.01,306.42 258.28,673.13 136.36,1032.79 -88.49,261.03 -164.8,342.84 -308.01,480.22l-445.32 361.68c-110.51,77.6 -473.13,349.84 -581.93,375.2 39.44,-58.9 86.79,-109.12 127.99,-172.29 441.51,-676.94 755.36,-1693.59 397.49,-2492.66l-93.83 -206.45zm-356.59 -563.02c0,-172.11 157.59,-315.34 318.98,-315.04 436.22,0.78 389.78,634.08 56.37,634.08l-112.6 0c-144.69,0 -262.75,-168.02 -262.75,-319.04zm-4410.32 2195.77c0,-317.41 -10.95,-1280.55 137.19,-1570.63 261.88,-512.86 419.15,-556.61 969.89,-775.47 129.88,-51.62 237.42,-86.8 356.78,-149.95l-750.66 1219.91c-62.94,117.15 -124.36,180.25 -198.97,288.97 -70.97,103.43 -139.21,194.08 -201.1,305.62l-313.12 681.55zm4185.11 -2233.31c-61.96,-5.15 -224.37,-90.26 -339.92,-129.26 -122.15,-41.22 -233.25,-67.01 -380.57,-88.62 -283.66,-41.61 -619.41,-12.4 -859.91,45.02 -839.76,200.51 -1208.67,577.5 -1309.77,604.51 222.4,-332.13 295.25,-479.88 579.11,-828.43 51.71,-63.5 99.74,-120.23 157.7,-180.12 93,-96.09 19.87,-68.47 188.6,-167.97 584.13,-344.44 832.6,-173.9 1455.65,34.1 88.43,29.52 801.81,201.8 903.22,204.06 -80.7,70.13 -394.12,143.78 -394.12,506.71z"/>
   <path class="fil0" d="M-0 2571.12c0,121.68 75.75,103.02 231.38,181.5 314.17,158.45 255.85,28.03 390.32,435.44 226.61,686.61 285.43,-128.86 414.79,-293.6 65.54,-83.47 409.32,-157.08 521.2,-285.81 -29.39,-126.1 -119,-134.28 -230.6,-182.28 -383.07,-164.74 -271.61,-106.21 -396.64,-429.11 -40.03,-103.38 -61.13,-235.14 -142.22,-289.44 -110.15,25.66 -101.79,93.43 -156.99,255.91 -116.16,341.93 -66.71,332.32 -521.87,510.32 -51.11,19.98 -109.37,31.56 -109.37,97.07z"/>
   <path class="fil0" d="M1782.9 638.09c0,103.82 296.79,155.9 370.41,230.13 81.38,82.06 97.96,357.38 192.62,426.72 131.46,-35.1 127.4,-297.09 206.33,-412.99 36.45,-53.51 25.88,-28.11 92.84,-57.31 40.11,-17.47 75.76,-36.16 116.35,-52.55 106.61,-43 134.71,-38.92 185.03,-134.01 -165.63,-190.55 -354.74,-84.61 -425.3,-306.63l-118.94 -331.47c-171.9,3.83 -121.77,212.66 -224.87,394.46 -39.22,69.17 -119.25,77.53 -200.62,118.43 -125.58,63.12 -193.84,56 -193.84,125.2z"/>
   <path class="fil0" d="M7938.59 7413.09c0,548.13 795.24,504.04 781.59,2.07 -8.8,-323.88 -409.85,-525.25 -674.57,-251.62 -58.59,60.56 -107.02,138.83 -107.02,249.54z"/>
   <path class="fil0" d="M4748.13 2984c0,162.68 197.74,340.26 412.9,56.32 92.35,-121.87 121.7,-117.21 201.88,-192.24 188.55,-176.47 507.85,-300.85 334.9,-513.49 -168.85,-207.61 -484.67,138.49 -611.92,236.48 -77.76,59.89 -337.77,299.04 -337.77,412.93z"/>
   <path class="fil0" d="M5986.78 2158.24c0,234.2 351.51,221.96 454.62,97.8 59.31,-71.42 60.02,-193.24 -8.59,-262.3 -127.15,-127.98 -446.03,-13.08 -446.03,164.5z"/>
   <path class="fil0" d="M7150.36 3791c0,283.1 394.11,-9.92 394.11,-150.14 0,-80.63 -91.61,-201.9 -277.05,-14.31 -39.38,39.84 -117.06,99.95 -117.06,164.45z"/>
   <path class="fil0" d="M5667.73 4766.9c0,113.21 95.62,112.6 150.14,112.6 56.13,0 243.98,-199.5 243.98,-262.75 0,-113.21 -95.62,-112.59 -150.14,-112.59 -56.14,0 -243.98,199.49 -243.98,262.74z"/>
   <path class="fil0" d="M6136.92 3678.4c0,95.94 105.81,130.49 112.6,131.37 62.25,8.07 281.51,-210.4 281.51,-281.51 0,-52.43 -75.44,-218.02 -277.18,-14.44 -32.31,32.61 -116.93,114.47 -116.93,164.57z"/>
   <path class="fil0" d="M975.9 4635.52c0,229.98 319.05,229.98 319.05,0 0,-211.88 -319.05,-211.88 -319.05,0z"/>
  </g>
 </g>
</svg>
