<?xml version="1.0" encoding="UTF-8"?>
<!DOCTYPE svg PUBLIC "-//W3C//DTD SVG 1.1//EN" "http://www.w3.org/Graphics/SVG/1.1/DTD/svg11.dtd">
<!-- Creator: CorelDRAW 2020 (64 Bit) -->
<svg xmlns="http://www.w3.org/2000/svg" xml:space="preserve" width="135.45mm" height="135.45mm" version="1.1" style="shape-rendering:geometricPrecision; text-rendering:geometricPrecision; image-rendering:optimizeQuality; fill-rule:evenodd; clip-rule:evenodd"
viewBox="0 0 14091.24 14091.24"
 xmlns:xlink="http://www.w3.org/1999/xlink"
 xmlns:xodm="http://www.corel.com/coreldraw/odm/2003">
 <defs>
  <style type="text/css">
   <![CDATA[
    .fil0 {fill:#373435}
   ]]>
  </style>
 </defs>
 <g id="Camada_x0020_1">
  <metadata id="CorelCorpID_0Corel-Layer"/>
  <g id="_2321700240448">
   <path class="fil0" d="M1210.97 8779.51c155.94,-41.64 700.92,-525.15 872.59,-668.65 272.2,-227.53 379.24,-398.74 565.75,-590.17l499.28 -656.64c57.12,-86.22 101.89,-152.35 154.39,-230.92 152.7,-228.54 614.86,-1107.3 632.68,-1321.39l55.04 0c10.3,123.8 156.6,428.54 212.21,558.4 80.75,188.55 169.57,330.16 265.1,505.52 170.05,312.14 273.43,439.38 452.98,702.94 53.41,78.39 102.64,150.68 164.4,220.9 503.01,571.94 746.07,856.56 1370.46,1326.69 74.02,55.73 189.31,122.56 232,180.83 -557.44,373.27 -763.86,589.06 -1231.67,1052.66 -475.8,471.51 -944.64,1225.44 -1245.72,1836.74l-274.8 550.86c-155.66,-668.13 -884.54,-1717.11 -1382.71,-2277.71 -144.71,-162.85 -242.89,-312.77 -472.87,-490.4l-637.09 -518.83c-74.07,-55.8 -189.27,-122.49 -232,-180.82zm2809.56 5311.73l-115.92 0c-133.64,-18.13 -260.16,-99.42 -327.77,-246.68l-415.73 -1290.62c-365.65,-983.31 -1060.43,-2008.25 -1898.66,-2670 -219.45,-173.25 -420.05,-335.07 -668.56,-487.35 -423.76,-259.69 -593.89,-250.98 -593.89,-644.6 0,-159.7 135.62,-270.44 241.89,-336.07 450.36,-278.1 576.79,-362.34 1008.62,-697.75 79.63,-61.85 91.63,-75.15 159.58,-143.16 65.01,-65.08 84.08,-69.1 150.55,-124.67 203.81,-170.35 632.46,-687.42 794.69,-911.67 604.33,-835.33 775.57,-1413.42 1081.42,-2331.3 82.83,-248.59 160.17,-657.02 471.37,-657.02 423.2,0 432.12,209.14 588.35,677.66 306.82,920.18 255.87,838.15 641.19,1615.61l429.33 699.06c767.95,1026.67 1168.6,1255.81 2106.79,1883.89 307.02,205.54 315.93,569.02 -20.63,767.82 -880.65,520.19 -1488.48,1022.36 -2109.68,1881.01 -160.49,221.85 -310.26,466.73 -442.88,713.04 -401.58,745.87 -637.4,1831.16 -760.02,2074.73 -67.29,133.67 -189.97,210.51 -320.05,228.07z"/>
   <path class="fil0" d="M9632.68 7018.1c338.36,-90.35 1464.8,-1370.26 1568.76,-1816.45l55.04 0c70.33,301.88 621.3,955.04 873.9,1245.28l694.85 598.69 -888.08 818.28c-148.72,153 -632.46,818.72 -680.67,1025.69l-55.04 0c-93.8,-402.61 -871.79,-1296.68 -1305.15,-1639.71 -86.31,-68.31 -157.29,-148.36 -263.61,-176.74l0 -55.04zm-1238.48 -27.53c0,145.62 -4.11,246.06 129.43,365.97 85.66,76.91 709.66,371.81 1129.93,796.59 1322.71,1336.86 960.98,2387.78 1520.35,2387.78 611.22,0 366.71,-490.63 936.94,-1485 42.72,-74.49 92.03,-161.06 147.84,-237.46 997.96,-1366.02 1832.54,-1303.9 1832.54,-1717.79l0 -6.79 0 -29.77c-0.31,-126.44 -7.38,-219.79 -129.43,-329.4 -165.52,-148.61 -760.8,-292.67 -1515.69,-1208.99 -118.34,-143.65 -216.21,-293 -314.46,-456.14 -598.6,-993.91 -330.17,-1519.23 -957.75,-1519.23 -655.67,0 -123.35,1668.54 -2388.89,3032.93 -153.99,92.74 -390.82,166.85 -390.82,407.31z"/>
   <path class="fil0" d="M6219.96 3082.46l692.33 -711.29c118.43,-145.39 505.58,-683.3 546.16,-857.45l55.04 0c76.39,327.91 721.37,1091.9 1052.38,1397.07 77.95,71.87 127.26,83.8 186.1,171.68l-691.97 711.66 -441.86 631.49c-58.81,99.74 -54.86,170.08 -159.7,198.08 -70.54,-264.19 -645.04,-961.6 -873.83,-1190.33l-364.67 -350.9zm-1128.39 -55.04c0,346.23 105.43,341.21 480.05,620.83 83.94,62.66 104.18,95.65 176.43,153.82 470,378.4 888.04,977.1 1133.21,1536.42 234.65,535.3 200.6,798.91 659.76,798.91 189.92,0 300.35,-170.02 354.54,-305.98 209.78,-526.29 315.25,-846.38 679.46,-1329.65 314.97,-417.92 593.82,-686.63 998.35,-983.23 255.43,-187.28 307.01,-185.04 307.01,-491.13 0,-281.39 -669.61,-579.25 -994.89,-986.69l-306.68 -381.37c-801.25,-1063.3 -501.35,-1659.35 -1147.89,-1659.35 -427.02,0 -381.93,782.89 -1025.87,1643.76 -180.88,241.82 -405.55,524.1 -641.33,707.24 -75.72,58.82 -104.1,99.3 -176.23,154.03 -220.04,166.94 -495.93,302.9 -495.93,522.38z"/>
   <path class="fil0" d="M9715.25 1045.83c0,691.37 825.66,527.11 825.66,110.09 0,-691.37 -825.66,-527.11 -825.66,-110.09z"/>
   <path class="fil0" d="M1128.41 4128.29c0,691.37 825.66,527.11 825.66,110.09 0,-691.37 -825.66,-527.11 -825.66,-110.09z"/>
   <path class="fil0" d="M7513.5 11614.26c0,691.37 825.66,527.11 825.66,110.09 0,-691.37 -825.66,-527.11 -825.66,-110.09z"/>
  </g>
 </g>
</svg>
